<mxfile host="65bd71144e">
    <diagram id="r8a3ads1-ZLUiGGkqeZa" name="Page-1">
        <mxGraphModel dx="924" dy="444" grid="1" gridSize="10" guides="1" tooltips="1" connect="1" arrows="1" fold="1" page="1" pageScale="1" pageWidth="1169" pageHeight="827" background="#ffffff" math="0" shadow="0">
            <root>
                <mxCell id="0"/>
                <mxCell id="1" parent="0"/>
                <mxCell id="2" value="GPS Tracked&lt;div&gt;Vehicle&lt;/div&gt;" style="rounded=0;whiteSpace=wrap;html=1;fillColor=#dae8fc;strokeColor=#6c8ebf;" vertex="1" parent="1">
                    <mxGeometry x="40" y="75" width="100" height="50" as="geometry"/>
                </mxCell>
                <mxCell id="3" value="MQTT&lt;div&gt;Broker&lt;/div&gt;" style="ellipse;whiteSpace=wrap;html=1;aspect=fixed;fillColor=#dae8fc;strokeColor=#6c8ebf;" vertex="1" parent="1">
                    <mxGeometry x="180" y="60" width="80" height="80" as="geometry"/>
                </mxCell>
                <mxCell id="4" value="Simulator&amp;nbsp;&lt;div&gt;Engine&lt;/div&gt;&lt;div&gt;(SUMO)&lt;/div&gt;" style="rounded=0;whiteSpace=wrap;html=1;fillColor=#dae8fc;strokeColor=#6c8ebf;" vertex="1" parent="1">
                    <mxGeometry x="150" y="208" width="100" height="50" as="geometry"/>
                </mxCell>
                <mxCell id="5" value="" style="endArrow=none;dashed=1;html=1;" edge="1" parent="1">
                    <mxGeometry width="50" height="50" relative="1" as="geometry">
                        <mxPoint x="40" y="176.57" as="sourcePoint"/>
                        <mxPoint x="350" y="177" as="targetPoint"/>
                    </mxGeometry>
                </mxCell>
                <mxCell id="6" value="Real-world" style="text;html=1;align=center;verticalAlign=middle;resizable=0;points=[];autosize=1;strokeColor=none;fillColor=none;" vertex="1" parent="1">
                    <mxGeometry x="30" y="148" width="80" height="30" as="geometry"/>
                </mxCell>
                <mxCell id="7" value="Virtual World" style="text;html=1;align=center;verticalAlign=middle;resizable=0;points=[];autosize=1;strokeColor=none;fillColor=none;" vertex="1" parent="1">
                    <mxGeometry x="30" y="178" width="90" height="30" as="geometry"/>
                </mxCell>
                <mxCell id="9" value="Context&lt;div&gt;Broker&lt;/div&gt;" style="ellipse;whiteSpace=wrap;html=1;aspect=fixed;fillColor=#dae8fc;strokeColor=#6c8ebf;" vertex="1" parent="1">
                    <mxGeometry x="370" y="140" width="80" height="80" as="geometry"/>
                </mxCell>
                <mxCell id="10" value="" style="endArrow=classic;html=1;exitX=1;exitY=0.5;exitDx=0;exitDy=0;entryX=0;entryY=0;entryDx=0;entryDy=0;" edge="1" parent="1" source="3" target="9">
                    <mxGeometry width="50" height="50" relative="1" as="geometry">
                        <mxPoint x="350" y="160" as="sourcePoint"/>
                        <mxPoint x="400" y="110" as="targetPoint"/>
                    </mxGeometry>
                </mxCell>
                <mxCell id="12" value="DTDO&lt;div&gt;Dynamic Asset Entity&lt;/div&gt;" style="edgeLabel;html=1;align=center;verticalAlign=middle;resizable=0;points=[];" vertex="1" connectable="0" parent="10">
                    <mxGeometry x="-0.1183" y="1" relative="1" as="geometry">
                        <mxPoint as="offset"/>
                    </mxGeometry>
                </mxCell>
                <mxCell id="11" value="" style="endArrow=classic;html=1;exitX=1;exitY=0.5;exitDx=0;exitDy=0;" edge="1" parent="1" source="2">
                    <mxGeometry width="50" height="50" relative="1" as="geometry">
                        <mxPoint x="350" y="160" as="sourcePoint"/>
                        <mxPoint x="180" y="100" as="targetPoint"/>
                    </mxGeometry>
                </mxCell>
                <mxCell id="13" value="" style="endArrow=classic;html=1;exitX=1;exitY=0.25;exitDx=0;exitDy=0;entryX=0;entryY=0.5;entryDx=0;entryDy=0;" edge="1" parent="1" source="4" target="9">
                    <mxGeometry width="50" height="50" relative="1" as="geometry">
                        <mxPoint x="350" y="170" as="sourcePoint"/>
                        <mxPoint x="382" y="208" as="targetPoint"/>
                    </mxGeometry>
                </mxCell>
                <mxCell id="17" value="Virtual Car Data" style="edgeLabel;html=1;align=center;verticalAlign=middle;resizable=0;points=[];" vertex="1" connectable="0" parent="13">
                    <mxGeometry x="0.106" y="-2" relative="1" as="geometry">
                        <mxPoint as="offset"/>
                    </mxGeometry>
                </mxCell>
                <mxCell id="14" value="" style="endArrow=classic;html=1;exitX=0;exitY=1;exitDx=0;exitDy=0;entryX=1;entryY=0.75;entryDx=0;entryDy=0;" edge="1" parent="1" source="9" target="4">
                    <mxGeometry width="50" height="50" relative="1" as="geometry">
                        <mxPoint x="350" y="170" as="sourcePoint"/>
                        <mxPoint x="400" y="120" as="targetPoint"/>
                    </mxGeometry>
                </mxCell>
                <mxCell id="16" value="&lt;span style=&quot;color: rgb(0, 0, 0);&quot;&gt;Real Car Data&lt;/span&gt;" style="edgeLabel;html=1;align=center;verticalAlign=middle;resizable=0;points=[];" vertex="1" connectable="0" parent="14">
                    <mxGeometry x="-0.1101" y="3" relative="1" as="geometry">
                        <mxPoint as="offset"/>
                    </mxGeometry>
                </mxCell>
                <mxCell id="18" value="" style="endArrow=classic;html=1;exitX=1;exitY=0.5;exitDx=0;exitDy=0;" edge="1" parent="1" target="19">
                    <mxGeometry width="50" height="50" relative="1" as="geometry">
                        <mxPoint x="450" y="178" as="sourcePoint"/>
                        <mxPoint x="520" y="178" as="targetPoint"/>
                    </mxGeometry>
                </mxCell>
                <mxCell id="19" value="Digital Twin" style="shape=process;whiteSpace=wrap;html=1;backgroundOutline=1;fillColor=#dae8fc;strokeColor=#6c8ebf;" vertex="1" parent="1">
                    <mxGeometry x="510" y="198" width="120" height="60" as="geometry"/>
                </mxCell>
                <mxCell id="22" value="" style="endArrow=none;dashed=1;html=1;" edge="1" parent="1">
                    <mxGeometry width="50" height="50" relative="1" as="geometry">
                        <mxPoint x="460" y="178" as="sourcePoint"/>
                        <mxPoint x="650" y="178" as="targetPoint"/>
                    </mxGeometry>
                </mxCell>
            </root>
        </mxGraphModel>
    </diagram>
</mxfile>